<?xml version="1.0" standalone="no"?><!DOCTYPE svg PUBLIC "-//W3C//DTD SVG 1.1//EN" "http://www.w3.org/Graphics/SVG/1.1/DTD/svg11.dtd"><svg t="1705591576554" class="icon" viewBox="0 0 2003 1024" version="1.1" xmlns="http://www.w3.org/2000/svg" p-id="4702" xmlns:xlink="http://www.w3.org/1999/xlink" width="391.2109375" height="200"><path d="M684.878379 0l0.438169 33.048538h-121.61549l0.500766 54.642075v0.43817L0.187787 88.316569v17.587417L0.001956 175.813527l1.690082 3.44276c17.712608 38.995123 55.330627 75.173443 104.904412 109.599085 49.571829 34.300451 111.412402 66.410054 179.011773 94.32575 135.198742 55.393223 292.24336 93.449411 417.800419 91.821925 62.278742-0.813743 105.592964 19.027116 135.198743 56.081775 28.479057 35.552363 42.563074 91.133373 43.752391 160.235039l-219.638295 174.44816 0.688552 158.231979h1029.9994l-0.312978-146.904126-219.499411-185.26938c4.569481-167.996898 59.086365-287.353077 148.273406-367.600678 90.695204-81.681432 217.819109-124.369698 364.721278-134.885764l16.272909-1.251912 0.195611-187.524779z m35.489768 35.239385l1247.327525 0.500765-0.312979 121.61549c-144.961705 12.957296-274.589436 55.58101-369.228164 140.644562-76.112377 68.600901-119.61243 172.063658-141.145327 294.933017l-134.94836 0.312978 0.195611 35.239385 128.125436-0.312978c-2.253443 18.839329-9.451941 33.361516-10.265684 53.390163l-74.547486-0.250383-0.195611 35.239385 83.058536 0.312978 178.448412 150.407525-245.421827 0.195612c-60.400873-56.336069-129.494715-93.136433-201.608796-96.632008-68.162732-3.325393-136.701037 27.039357-199.230163 86.814274l-248.551608-2.00306 187.591287-148.664628v-8.513006c0.195611-78.676842-16.711078-143.522005-53.390163-189.340053-33.048538-41.373757-84.060066-62.529125-145.274683-65.909289l-0.688552-374.73658h0.688552zM599.378613 68.287923h85.624957l0.688552 367.538082c-115.7315-1.690082-260.820353-33.73709-386.504559-85.374574-65.658907-27.039357-125.746802-58.272622-172.439231-90.632608-45.880643-31.608838-77.677268-64.782568-91.32116-93.394641V123.555955l528.774652-0.195612v180.263686h35.239385v-180.255861h0.312978l-0.312978-36.303511z m578.722054 737.65041c62.595633 3.067186 125.433824 36.366107 181.953768 89.944056l-0.195611 92.823455h-362.585203l-0.500765-100.153013c58.898578-59.837513 120.426173-85.624957 181.331723-82.620367z m-480.327588 84.617559l263.699752 1.940464 0.500765 96.203619H698.273844z m959.718198 11.89317l0.195611 86.313509h-262.706046v-86.190274z" p-id="4703"></path></svg>