<svg xmlns="http://www.w3.org/2000/svg" xmlns:xlink="http://www.w3.org/1999/xlink" fill="none" version="1.1" width="659" height="185" viewBox="0 0 659 185"><defs><clipPath id="master_svg0_6_15"><rect x="0" y="0" width="659" height="185" rx="0"/></clipPath><mask id="master_svg1_6_27" style="mask-type:alpha" maskUnits="userSpaceOnUse"><g><rect x="-15" y="-8.999969482421875" width="200" height="200" rx="0" fill="#FFFFFF" fill-opacity="1"/></g></mask><mask id="master_svg2_6_33" style="mask-type:alpha" maskUnits="userSpaceOnUse"><g><rect x="217.00100708007812" y="-15.0009765625" width="200" height="200" rx="0" fill="#FFFFFF" fill-opacity="1"/></g></mask></defs><g clip-path="url(#master_svg0_6_15)"><g><g><path d="M268.76800000000003,119.32L251.704,119.32L234.928,95.56L230.392,100.312L230.392,119.32L217,119.32L217,61L230.392,61L230.392,82.96000000000001L249.328,61L267.904,61L244.288,85.768L268.76800000000003,119.32ZM275.032,119.32L274.312,75.76L287.992,75.76L287.992,83.608L288.424,83.608Q292.81600000000003,74.752,304.408,74.752L304.84000000000003,74.752L304.84000000000003,87.28L304.12,87.28Q295.408,87.28,291.7,89.98Q287.992,92.68,287.992,98.512L287.992,119.32L275.032,119.32ZM348.616,94.47999999999999Q348.616,99.01599999999999,347.608,102.616L320.68,102.616Q322.048,109.816,329.032,109.816Q331.624,109.816,333.64,108.268Q335.656,106.72,336.808,104.128L347.464,108.52000000000001Q345.304,114.136,340.48,117.232Q335.656,120.328,328.96,120.328Q322.336,120.328,317.368,117.592Q312.4,114.856,309.7,109.816Q307,104.77600000000001,307,98.00800000000001Q307,90.952,309.628,85.696Q312.256,80.44,317.116,77.596Q321.976,74.752,328.456,74.752Q334.504,74.752,339.076,77.164Q343.648,79.576,346.132,84.03999999999999Q348.616,88.504,348.616,94.47999999999999ZM335.44,92.104Q335.44,89.008,333.568,87.136Q331.696,85.264,328.456,85.264Q322.552,85.264,320.896,92.104L335.44,92.104ZM354.952,119.32L354.952,61L367.91200000000003,61L367.91200000000003,80.8L368.344,80.8Q370.288,77.992,373.276,76.372Q376.264,74.752,379.648,74.752Q384.832,74.752,388.68399999999997,77.488Q392.536,80.224,394.624,85.264Q396.712,90.304,396.712,97.144Q396.712,104.2,394.624,109.456Q392.536,114.712,388.648,117.52000000000001Q384.76,120.328,379.504,120.328Q376.12,120.328,373.204,118.744Q370.288,117.16,368.344,114.28L367.91200000000003,114.28L367.91200000000003,119.32L354.952,119.32ZM367.624,97.576Q367.624,102.47200000000001,369.712,105.352Q371.8,108.232,375.4,108.232Q379.144,108.232,381.304,105.352Q383.464,102.47200000000001,383.464,97.576Q383.464,92.608,381.376,89.72800000000001Q379.288,86.848,375.688,86.848Q371.94399999999996,86.848,369.784,89.72800000000001Q367.624,92.608,367.624,97.576ZM422.488,120.328Q416.00800000000004,120.328,411.22,117.556Q406.432,114.78399999999999,403.876,109.636Q401.32,104.488,401.32,97.50399999999999Q401.32,90.592,403.876,85.444Q406.432,80.29599999999999,411.22,77.524Q416.00800000000004,74.752,422.488,74.752Q428.96799999999996,74.752,433.756,77.524Q438.544,80.29599999999999,441.1,85.444Q443.656,90.592,443.656,97.50399999999999Q443.656,104.488,441.1,109.636Q438.544,114.78399999999999,433.756,117.556Q428.96799999999996,120.328,422.488,120.328ZM422.488,108.088Q426.15999999999997,108.088,428.284,105.244Q430.408,102.4,430.408,97.50399999999999Q430.408,92.608,428.284,89.8Q426.15999999999997,86.992,422.488,86.992Q418.81600000000003,86.992,416.692,89.8Q414.568,92.608,414.568,97.50399999999999Q414.568,102.4,416.692,105.244Q418.81600000000003,108.088,422.488,108.088ZM466.91200000000003,120.328Q460,120.328,454.996,117.124Q449.99199999999996,113.92,448.12,108.44800000000001L458.848,103.98400000000001Q459.856,106.72,461.94399999999996,108.268Q464.03200000000004,109.816,466.696,109.816Q469.144,109.816,470.368,109.024Q471.592,108.232,471.592,106.792Q471.592,105.352,470.044,104.38Q468.496,103.408,465.4,102.75999999999999Q457.552,100.96000000000001,453.15999999999997,97.53999999999999Q448.76800000000003,94.12,448.76800000000003,88.504Q448.76800000000003,84.328,450.964,81.232Q453.15999999999997,78.136,457.12,76.444Q461.08000000000004,74.752,466.336,74.752Q472.744,74.752,477.712,77.956Q482.68,81.16,484.696,86.632L474.04,91.024Q472.81600000000003,88.36,470.764,86.812Q468.712,85.264,466.552,85.264Q464.32,85.264,463.168,86.092Q462.01599999999996,86.92,462.01599999999996,88.288Q462.01599999999996,89.8,463.63599999999997,90.736Q465.256,91.672,469.72,92.608Q484.84,95.99199999999999,484.84,106.36Q484.84,110.392,482.5,113.56Q480.16,116.72800000000001,476.056,118.52799999999999Q471.952,120.328,466.91200000000003,120.328ZM518.752,88L507.664,88L507.664,103.12Q507.664,105.28,508.96,106.468Q510.256,107.656,512.6320000000001,107.656Q515.2239999999999,107.656,517.8879999999999,106.864L517.8879999999999,119.104Q513.712,120.328,509.464,120.328Q502.336,120.328,498.52,116.404Q494.704,112.47999999999999,494.704,105.136L494.704,88L488.008,88L488.008,75.76L494.704,75.76L494.704,63.736L507.664,63.736L507.664,75.76L518.752,75.76L518.752,88ZM542.944,120.328Q536.4639999999999,120.328,531.6759999999999,117.556Q526.8879999999999,114.78399999999999,524.332,109.636Q521.7760000000001,104.488,521.7760000000001,97.50399999999999Q521.7760000000001,90.592,524.332,85.444Q526.8879999999999,80.29599999999999,531.6759999999999,77.524Q536.4639999999999,74.752,542.944,74.752Q549.424,74.752,554.212,77.524Q559,80.29599999999999,561.556,85.444Q564.1120000000001,90.592,564.1120000000001,97.50399999999999Q564.1120000000001,104.488,561.556,109.636Q559,114.78399999999999,554.212,117.556Q549.424,120.328,542.944,120.328ZM542.944,108.088Q546.616,108.088,548.74,105.244Q550.864,102.4,550.864,97.50399999999999Q550.864,92.608,548.74,89.8Q546.616,86.992,542.944,86.992Q539.2719999999999,86.992,537.148,89.8Q535.024,92.608,535.024,97.50399999999999Q535.024,102.4,537.148,105.244Q539.2719999999999,108.088,542.944,108.088ZM570.448,119.32L570.448,75.76L583.408,75.76L583.408,81.376L583.768,81.376Q585.64,78.208,588.664,76.48Q591.688,74.752,595.72,74.752Q602.2,74.752,605.7280000000001,78.928Q609.256,83.104,609.256,90.80799999999999L609.256,119.32L596.296,119.32L596.296,93.832Q596.296,90.664,594.748,88.864Q593.2,87.064,590.4639999999999,87.064Q587.2239999999999,87.064,585.316,89.08Q583.408,91.096,583.408,94.624L583.408,119.32L570.448,119.32ZM656.7760000000001,94.47999999999999Q656.7760000000001,99.01599999999999,655.768,102.616L628.8399999999999,102.616Q630.2080000000001,109.816,637.192,109.816Q639.784,109.816,641.8,108.268Q643.816,106.72,644.9680000000001,104.128L655.624,108.52000000000001Q653.4639999999999,114.136,648.64,117.232Q643.816,120.328,637.12,120.328Q630.496,120.328,625.528,117.592Q620.56,114.856,617.86,109.816Q615.1600000000001,104.77600000000001,615.1600000000001,98.00800000000001Q615.1600000000001,90.952,617.788,85.696Q620.4159999999999,80.44,625.2760000000001,77.596Q630.136,74.752,636.616,74.752Q642.664,74.752,647.236,77.164Q651.808,79.576,654.2919999999999,84.03999999999999Q656.7760000000001,88.504,656.7760000000001,94.47999999999999ZM643.6,92.104Q643.6,89.008,641.7280000000001,87.136Q639.856,85.264,636.616,85.264Q630.712,85.264,629.056,92.104L643.6,92.104Z" fill="#FFFFFF" fill-opacity="1"/></g></g><g><g><g mask="url(#master_svg1_6_27)"><g><path d="M12.0930287109375,143.65015176391603L77.8001287109375,180.98215176391602C82.6573287109375,183.746151763916,87.1751287109375,183.82815176391603,92.2001287109375,180.98215176391602L157.9074287109375,143.65015176391603C165.6934287109375,139.21415176391602,169.9604287109375,134.693151763916,169.9604287109375,122.55715176391601L169.9604287109375,56.260651763916016C169.9604287109375,46.97135176391602,166.2784287109375,41.69635176391601,159.4144287109375,37.760651763916016L100.2354287109375,4.114211763916016C89.9394287109375,-1.8286482360839844,79.8930287109375,-1.7429282360839844,69.7644287109375,4.114211763916016L10.5858287109375,37.764251763916015C3.7215687109375,41.69635176391601,0.0394287109375,46.97135176391602,0.0394287109375,56.264251763916015L0.0394287109375,122.55715176391601C0.0394287109375,134.693151763916,4.3072887109375,139.21415176391602,12.0930287109375,143.65015176391603ZM85.0001287109375,83.97135176391602L21.2144287109375,47.89275176391602L75.7073287109375,16.749951763916016C82.0716287109375,13.153451763916015,87.7608287109375,13.071351763916015,94.2930287109375,16.749951763916016L148.7824287109375,47.89275176391602L85.0001287109375,83.97135176391602ZM19.9644287109375,131.92815176391602C15.1894287109375,129.25015176391602,13.6001287109375,126.65315176391601,13.6001287109375,122.13515176391601L13.6001287109375,59.692751763916014L77.9680287109375,96.44275176391602L77.9680287109375,164.91015176391602L19.9644287109375,131.92815176391602ZM150.0394287109375,131.92815176391602L92.0323287109375,164.907151763916L92.0323287109375,96.43925176391602L156.4004287109375,59.692751763916014L156.4004287109375,122.14315176391601C156.4004287109375,126.66015176391602,154.8104287109375,129.25715176391603,150.0394287109375,131.92815176391602Z" fill="#FFFFFF" fill-opacity="1"/></g></g></g><g transform="matrix(0,1,-1,0,202.00003051757812,-232.00198364257812)"><g mask="url(#master_svg2_6_33)"><g><path d="M336.00201416015625,102.9990234375L377.00201416015625,102.9990234375Q377.12471416015626,102.9990234375,377.24731416015624,102.9929934375Q377.36991416015627,102.9869734375,377.49211416015623,102.9749434375Q377.6142141601563,102.9629034375,377.73571416015625,102.9449034375Q377.85711416015624,102.9268934375,377.97741416015623,102.9029534375Q378.09781416015625,102.8789934375,378.21691416015625,102.8491834375Q378.33601416015625,102.8193534375,378.4534141601562,102.7837234375Q378.57091416015624,102.7480934375,378.68641416015623,102.7067434375Q378.80201416015626,102.6653934375,378.9154141601563,102.6184234375Q379.02881416015623,102.5714534375,379.1398141601562,102.5189634375Q379.25071416015624,102.4664934375,379.3590141601562,102.4086334375Q379.46721416015623,102.3507734375,379.57251416015623,102.2876634375Q379.67781416015623,102.2245634375,379.77991416015624,102.1563734375Q379.88191416015627,102.08818343749999,379.98051416015625,102.0150634375Q380.0791141601562,101.9419434375,380.1740141601563,101.8640734375Q380.26881416015624,101.7862134375,380.35981416015625,101.7037834375Q380.4507141601563,101.6213534375,380.53751416015626,101.5345434375Q380.62431416015625,101.4477734375,380.7068141601562,101.3568134375Q380.78921416015623,101.2658734375,380.86711416015623,101.1709934375Q380.94491416015626,101.0761134375,381.01801416015627,100.9775234375Q381.0911141601563,100.8789334375,381.15931416015627,100.7768734375Q381.22751416015626,100.6748234375,381.2906141601562,100.5695334375Q381.35371416015624,100.4642534375,381.41161416015626,100.3560034375Q381.4695141601562,100.2477534375,381.52191416015626,100.1368134375Q381.57441416015627,100.0258434375,381.62141416015623,99.9124434375Q381.66841416015626,99.7990434375,381.70971416015624,99.6834734375Q381.75111416015625,99.56790343750001,381.78671416015624,99.4504434375Q381.8223141601562,99.3329934375,381.8522141601562,99.2139234375Q381.88201416015625,99.0948634375,381.90591416015627,98.9744734375Q381.9299141601563,98.8540934375,381.94791416015624,98.7326834375Q381.9659141601563,98.6112634375,381.9779141601563,98.4891034375Q381.99001416015625,98.3669634375,381.9960141601563,98.2443534375Q382.00201416015625,98.1217634375,382.00201416015625,97.9990234375Q382.00201416015625,97.8762834375,381.9960141601563,97.7536934375Q381.99001416015625,97.6310834375,381.9779141601563,97.5089434375Q381.9659141601563,97.3867834375,381.94791416015624,97.2653634375Q381.9299141601563,97.1439534375,381.90591416015627,97.0235734375Q381.88201416015625,96.9031834375,381.8522141601562,96.7841234375Q381.8223141601562,96.6650534375,381.78671416015624,96.5476034375Q381.75111416015625,96.43014343749999,381.70971416015624,96.3145734375Q381.66841416015626,96.1990034375,381.62141416015623,96.0856034375Q381.57441416015627,95.9722034375,381.52191416015626,95.8612334375Q381.4695141601562,95.7502934375,381.41161416015626,95.6420434375Q381.35371416015624,95.5337934375,381.2906141601562,95.4285134375Q381.22751416015626,95.3232234375,381.15931416015627,95.2211734375Q381.0911141601563,95.1191134375,381.01801416015627,95.0205234375Q380.94491416015626,94.9219334375,380.86711416015623,94.8270534375Q380.78921416015623,94.7321734375,380.7068141601562,94.6412334375Q380.62431416015625,94.5502734375,380.53751416015626,94.4635034375Q380.4507141601563,94.3766934375,380.35981416015625,94.2942634375Q380.26881416015624,94.2118334375,380.1740141601563,94.1339734375Q380.0791141601562,94.0561034375,379.98051416015625,93.9829864375Q379.88191416015627,93.9098664375,379.77991416015624,93.8416744375Q379.67781416015623,93.7734834375,379.57251416015623,93.7103884375Q379.46721416015623,93.6472774375,379.3590141601562,93.5894164375Q379.25071416015624,93.5315554375,379.1398141601562,93.4790804375Q379.02881416015623,93.4265904375,378.9154141601563,93.3796234375Q378.80201416015626,93.3326564375,378.68641416015623,93.2913054375Q378.57091416015624,93.2499544375,378.4534141601562,93.2143254375Q378.33601416015625,93.1786954375,378.21691416015625,93.1488644375Q378.09781416015625,93.1190494375,377.97741416015623,93.0950927375Q377.85711416015624,93.0711517375,377.73571416015625,93.0531463375Q377.6142141601563,93.0351410375,377.49211416015623,93.0231018375Q377.36991416015627,93.0110778375,377.24731416015624,93.00505065749999Q377.12471416015626,92.9990234375,377.00201416015625,92.9990234375L336.00201416015625,92.9990234375Q335.8792741601562,92.9990234375,335.7566841601562,93.00505065749999Q335.6340741601563,93.0110778375,335.5119341601563,93.0231018375Q335.38977416015626,93.0351410375,335.26835416015626,93.0531463375Q335.14694416015624,93.0711517375,335.0265641601562,93.0950927375Q334.90617416015624,93.1190494375,334.78711416015625,93.1488644375Q334.6680441601562,93.1786954375,334.55059416015627,93.2143254375Q334.43313416015627,93.2499544375,334.3175641601562,93.2913054375Q334.20199416015623,93.3326564375,334.0885941601563,93.3796234375Q333.97519416015626,93.4265904375,333.86422416015625,93.4790804375Q333.7532841601562,93.5315554375,333.64503416015623,93.5894164375Q333.53678416015623,93.6472774375,333.43150416015624,93.7103884375Q333.32621416015627,93.7734834375,333.22416416015625,93.8416744375Q333.12210416015625,93.9098664375,333.02351416015625,93.9829864375Q332.92492416015625,94.0561034375,332.83004416015626,94.1339734375Q332.7351641601563,94.2118334375,332.6442241601562,94.2942634375Q332.55326416015623,94.3766934375,332.46649416015623,94.4635034375Q332.3796841601563,94.5502734375,332.2972541601562,94.6412334375Q332.21482416015624,94.7321734375,332.13696416015625,94.8270534375Q332.05909416015623,94.9219334375,331.98597716015627,95.0205234375Q331.91285716015625,95.1191134375,331.84466516015624,95.2211734375Q331.7764741601562,95.3232234375,331.71337916015625,95.4285134375Q331.65026816015626,95.5337934375,331.59240716015626,95.6420434375Q331.53454616015625,95.7502934375,331.48207116015624,95.8612334375Q331.42958116015626,95.9722034375,331.38261416015627,96.0856034375Q331.33564716015627,96.1990034375,331.29429616015625,96.3145734375Q331.25294516015623,96.43014343749999,331.21731616015626,96.5476034375Q331.18168616015623,96.6650534375,331.15185516015623,96.7841234375Q331.12204016015625,96.9031834375,331.09808346015626,97.0235734375Q331.0741424601562,97.1439534375,331.05613706015623,97.2653634375Q331.03813176015626,97.3867834375,331.02609256015626,97.5089434375Q331.01406856015626,97.6310834375,331.00804138015627,97.7536934375Q331.00201416015625,97.8762834375,331.00201416015625,97.9990234375Q331.00201416015625,98.1217634375,331.00804138015627,98.2443534375Q331.01406856015626,98.3669634375,331.02609256015626,98.4891034375Q331.03813176015626,98.6112634375,331.05613706015623,98.7326834375Q331.0741424601562,98.8540934375,331.09808346015626,98.9744734375Q331.12204016015625,99.0948634375,331.15185516015623,99.2139234375Q331.18168616015623,99.3329934375,331.21731616015626,99.4504434375Q331.25294516015623,99.56790343750001,331.29429616015625,99.6834734375Q331.33564716015627,99.7990434375,331.38261416015627,99.9124434375Q331.42958116015626,100.0258434375,331.48207116015624,100.1368134375Q331.53454616015625,100.2477534375,331.59240716015626,100.3560034375Q331.65026816015626,100.4642534375,331.71337916015625,100.5695334375Q331.7764741601562,100.6748234375,331.84466516015624,100.7768734375Q331.91285716015625,100.8789334375,331.98597716015627,100.9775234375Q332.05909416015623,101.0761134375,332.13696416015625,101.1709934375Q332.21482416015624,101.2658734375,332.2972541601562,101.3568134375Q332.3796841601563,101.4477734375,332.46649416015623,101.5345434375Q332.55326416015623,101.6213534375,332.6442241601562,101.7037834375Q332.7351641601563,101.7862134375,332.83004416015626,101.8640734375Q332.92492416015625,101.9419434375,333.02351416015625,102.0150634375Q333.12210416015625,102.08818343749999,333.22416416015625,102.1563734375Q333.32621416015627,102.2245634375,333.43150416015624,102.2876634375Q333.53678416015623,102.3507734375,333.64503416015623,102.4086334375Q333.7532841601562,102.4664934375,333.86422416015625,102.5189634375Q333.97519416015626,102.5714534375,334.0885941601563,102.6184234375Q334.20199416015623,102.6653934375,334.3175641601562,102.7067434375Q334.43313416015627,102.7480934375,334.55059416015627,102.7837234375Q334.6680441601562,102.8193534375,334.78711416015625,102.8491834375Q334.90617416015624,102.8789934375,335.0265641601562,102.9029534375Q335.14694416015624,102.9268934375,335.26835416015626,102.9449034375Q335.38977416015626,102.9629034375,335.5119341601563,102.9749434375Q335.6340741601563,102.9869734375,335.7566841601562,102.9929934375Q335.8792741601562,102.9990234375,336.00201416015625,102.9990234375Z" fill-rule="evenodd" fill="#FFFFFF" fill-opacity="1"/></g></g></g></g></g></svg>