<svg xmlns="http://www.w3.org/2000/svg" xmlns:xlink="http://www.w3.org/1999/xlink" fill="none" version="1.1" width="256" height="256" viewBox="0 0 256 256"><defs><clipPath id="master_svg0_1_1"><rect x="0" y="0" width="256" height="256" rx="0"/></clipPath><clipPath id="master_svg1_1_142"><rect x="28" y="28" width="200" height="200" rx="0"/></clipPath></defs><g clip-path="url(#master_svg0_1_1)"><rect x="0" y="0" width="256" height="256" rx="0" fill="#373737" fill-opacity="0"/><g clip-path="url(#master_svg1_1_142)"><g><path d="M55.0930287109375,180.65011743164064L120.8001287109375,217.98211743164063C125.6573287109375,220.7461174316406,130.17512871093749,220.82811743164064,135.20012871093752,217.98211743164063L200.9074287109375,180.65011743164064C208.6934287109375,176.21411743164063,212.9604287109375,171.69311743164062,212.9604287109375,159.55711743164062L212.9604287109375,93.26061743164063C212.9604287109375,83.97131743164063,209.2784287109375,78.69631743164062,202.4144287109375,74.76061743164063L143.2354287109375,41.11417743164063C132.9394287109375,35.171317431640624,122.8930287109375,35.257037431640626,112.7644287109375,41.11417743164063L53.5858287109375,74.76421743164062C46.7215687109375,78.69631743164062,43.0394287109375,83.97131743164063,43.0394287109375,93.26421743164062L43.0394287109375,159.55711743164062C43.0394287109375,171.69311743164062,47.3072887109375,176.21411743164063,55.0930287109375,180.65011743164064ZM128.0001287109375,120.97131743164063L64.2144287109375,84.89271743164062L118.7073287109375,53.749917431640625C125.0716287109375,50.15341743164063,130.76082871093752,50.07131743164062,137.2930287109375,53.749917431640625L191.7824287109375,84.89271743164062L128.0001287109375,120.97131743164063ZM62.9644287109375,168.92811743164063C58.1894287109375,166.25011743164063,56.6001287109375,163.65311743164062,56.6001287109375,159.13511743164062L56.6001287109375,96.69271743164063L120.9680287109375,133.44271743164063L120.9680287109375,201.91011743164063L62.9644287109375,168.92811743164063ZM193.0394287109375,168.92811743164063L135.03232871093752,201.90711743164061L135.03232871093752,133.43921743164063L199.4004287109375,96.69271743164063L199.4004287109375,159.14311743164063C199.4004287109375,163.66011743164063,197.8104287109375,166.25711743164064,193.0394287109375,168.92811743164063L193.0394287109375,168.92811743164063Z" fill="#FFFFFF" fill-opacity="1"/></g><g transform="matrix(0,1,-1,0,288.0010070800781,-6.001007080078125)"><path d="M147.00100708007812,146L188.00100708007812,146Q188.12370708007813,146,188.2463070800781,145.99398Q188.36890708007812,145.98795,188.4911070800781,145.97592Q188.61320708007813,145.96389,188.73470708007812,145.94588Q188.85610708007812,145.92787,188.97640708007813,145.90393Q189.09680708007812,145.87998,189.21590708007813,145.85016Q189.33500708007813,145.82033,189.45240708007813,145.7847Q189.5699070800781,145.74907,189.6854070800781,145.70772Q189.80100708007814,145.66637,189.91440708007812,145.6194Q190.02780708007813,145.57243,190.13880708007812,145.51995Q190.2497070800781,145.46747,190.35800708007812,145.40961Q190.46620708007814,145.35175,190.57150708007813,145.28864Q190.67680708007813,145.22554,190.7789070800781,145.15735Q190.88090708007812,145.08916,190.97950708007812,145.01604Q191.07810708007813,144.94292,191.17300708007812,144.86505Q191.26780708007811,144.78718,191.35880708007812,144.70476Q191.44970708007813,144.62233,191.53650708007814,144.53553Q191.62330708007812,144.44874,191.70580708007813,144.35779Q191.7882070800781,144.26685,191.8661070800781,144.17197Q191.94390708007813,144.07708,192.01700708007812,143.9785Q192.09010708007813,143.87991,192.15830708007812,143.77785Q192.22650708007814,143.67579,192.28960708007813,143.57051Q192.35270708007812,143.46523,192.41060708007814,143.35698Q192.46850708007813,143.24873,192.52090708007813,143.13778Q192.57340708007814,143.02682,192.6204070800781,142.91342Q192.66740708007814,142.80002,192.7087070800781,142.68445Q192.75010708007812,142.56888,192.7857070800781,142.45142Q192.82130708007813,142.33397,192.85120708007813,142.2149Q192.88100708007812,142.09584,192.90490708007812,141.975451Q192.92890708007812,141.855067,192.94690708007812,141.733652Q192.96490708007812,141.612238,192.97690708007812,141.490086Q192.98900708007812,141.367934,192.99500708007812,141.245338Q193.00100708007812,141.122743,193.00100708007812,141Q193.00100708007812,140.877257,192.99500708007812,140.754662Q192.98900708007812,140.632066,192.97690708007812,140.509914Q192.96490708007812,140.387762,192.94690708007812,140.266348Q192.92890708007812,140.144933,192.90490708007812,140.024549Q192.88100708007812,139.90416,192.85120708007813,139.7851Q192.82130708007813,139.66603,192.7857070800781,139.54858Q192.75010708007812,139.43112,192.7087070800781,139.31555Q192.66740708007814,139.19998,192.6204070800781,139.08658Q192.57340708007814,138.97318,192.52090708007813,138.86222Q192.46850708007813,138.75127,192.41060708007814,138.64302Q192.35270708007812,138.53477,192.28960708007813,138.42949Q192.22650708007814,138.32421,192.15830708007812,138.22215Q192.09010708007813,138.12009,192.01700708007812,138.0215Q191.94390708007813,137.92292,191.8661070800781,137.82803Q191.7882070800781,137.73315,191.70580708007813,137.64221Q191.62330708007812,137.55126,191.53650708007814,137.46447Q191.44970708007813,137.37767,191.35880708007812,137.29524Q191.26780708007811,137.21282,191.17300708007812,137.13495Q191.07810708007813,137.05708,190.97950708007812,136.98396Q190.88090708007812,136.91084,190.7789070800781,136.84265Q190.67680708007813,136.77446,190.57150708007813,136.71136Q190.46620708007814,136.64825,190.35800708007812,136.59039Q190.2497070800781,136.53253,190.13880708007812,136.48005Q190.02780708007813,136.42757,189.91440708007812,136.3806Q189.80100708007814,136.33363,189.6854070800781,136.29228Q189.5699070800781,136.25093,189.45240708007813,136.2153Q189.33500708007813,136.17967,189.21590708007813,136.14984Q189.09680708007812,136.12002,188.97640708007813,136.09607Q188.85610708007812,136.07213,188.73470708007812,136.05412Q188.61320708007813,136.03611,188.4911070800781,136.02408Q188.36890708007812,136.01205,188.2463070800781,136.00602Q188.12370708007813,136,188.00100708007812,136L147.00100708007812,136Q146.8782640800781,136,146.75566908007812,136.00602Q146.63307308007813,136.01205,146.51092108007813,136.02408Q146.38876908007813,136.03611,146.26735508007812,136.05412Q146.14594008007813,136.07213,146.02555608007813,136.09607Q145.90516708007812,136.12002,145.78610708007812,136.14984Q145.66703708007813,136.17967,145.5495870800781,136.2153Q145.43212708007812,136.25093,145.31655708007813,136.29228Q145.20098708007814,136.33363,145.08758708007812,136.3806Q144.97418708007814,136.42757,144.86322708007813,136.48005Q144.75227708007813,136.53253,144.64402708007813,136.59039Q144.53577708007813,136.64825,144.4304970800781,136.71136Q144.32521708007812,136.77446,144.22315708007812,136.84265Q144.12109708007813,136.91084,144.02250708007813,136.98396Q143.92392708007813,137.05708,143.82903708007814,137.13495Q143.73415708007812,137.21282,143.64321708007813,137.29524Q143.55226708007814,137.37767,143.46547708007813,137.46447Q143.37867708007812,137.55126,143.29624708007813,137.64221Q143.21382708007812,137.73315,143.13595708007813,137.82803Q143.05808708007814,137.92292,142.98496708007812,138.0215Q142.91184708007813,138.12009,142.84365708007812,138.22215Q142.77546708007813,138.32421,142.71236708007814,138.42949Q142.64925708007812,138.53477,142.59139708007814,138.64302Q142.53353708007813,138.75127,142.48105708007813,138.86222Q142.42857708007813,138.97318,142.3816070800781,139.08658Q142.33463708007812,139.19998,142.29328708007813,139.31555Q142.25193708007814,139.43112,142.21630708007814,139.54858Q142.1806770800781,139.66603,142.15084708007814,139.7851Q142.12102708007814,139.90416,142.09707708007812,140.024549Q142.0731370800781,140.144933,142.05512708007814,140.266348Q142.03711708007813,140.387762,142.02508708007812,140.509914Q142.0130570800781,140.632066,142.00702708007813,140.754662Q142.00100708007812,140.877257,142.00100708007812,141Q142.00100708007812,141.122743,142.00702708007813,141.245338Q142.0130570800781,141.367934,142.02508708007812,141.490086Q142.03711708007813,141.612238,142.05512708007814,141.733652Q142.0731370800781,141.855067,142.09707708007812,141.975451Q142.12102708007814,142.09584,142.15084708007814,142.2149Q142.1806770800781,142.33397,142.21630708007814,142.45142Q142.25193708007814,142.56888,142.29328708007813,142.68445Q142.33463708007812,142.80002,142.3816070800781,142.91342Q142.42857708007813,143.02682,142.48105708007813,143.13778Q142.53353708007813,143.24873,142.59139708007814,143.35698Q142.64925708007812,143.46523,142.71236708007814,143.57051Q142.77546708007813,143.67579,142.84365708007812,143.77785Q142.91184708007813,143.87991,142.98496708007812,143.9785Q143.05808708007814,144.07708,143.13595708007813,144.17197Q143.21382708007812,144.26685,143.29624708007813,144.35779Q143.37867708007812,144.44874,143.46547708007813,144.53553Q143.55226708007814,144.62233,143.64321708007813,144.70476Q143.73415708007812,144.78718,143.82903708007814,144.86505Q143.92392708007813,144.94292,144.02250708007813,145.01604Q144.12109708007813,145.08916,144.22315708007812,145.15735Q144.32521708007812,145.22554,144.4304970800781,145.28864Q144.53577708007813,145.35175,144.64402708007813,145.40961Q144.75227708007813,145.46747,144.86322708007813,145.51995Q144.97418708007814,145.57243,145.08758708007812,145.6194Q145.20098708007814,145.66637,145.31655708007813,145.70772Q145.43212708007812,145.74907,145.5495870800781,145.7847Q145.66703708007813,145.82033,145.78610708007812,145.85016Q145.90516708007812,145.87998,146.02555608007813,145.90393Q146.14594008007813,145.92787,146.26735508007812,145.94588Q146.38876908007813,145.96389,146.51092108007813,145.97592Q146.63307308007813,145.98795,146.75566908007812,145.99398Q146.8782640800781,146,147.00100708007812,146Z" fill-rule="evenodd" fill="#FFFFFF" fill-opacity="1"/></g></g></g></svg>