<svg xmlns="http://www.w3.org/2000/svg" xmlns:xlink="http://www.w3.org/1999/xlink" fill="none" version="1.1" width="240" height="240.00001525878906" viewBox="0 0 240 240.00001525878906"><defs><clipPath id="master_svg0_1_1"><rect x="0" y="0" width="240" height="240.00001525878906" rx="0"/></clipPath><clipPath id="master_svg1_1_442"><rect x="45" y="86" width="134" height="68" rx="0"/></clipPath></defs><g clip-path="url(#master_svg0_1_1)"><rect x="0" y="0" width="240" height="240.00001525878906" rx="0" fill="#2FA2FF" fill-opacity="1"/><g clip-path="url(#master_svg1_1_442)"><g><path d="M90.8181,86L90.8474,88.19463L82.7114,88.19463L82.7449,91.8232L82.7449,91.8523L45.0125629,91.86477L45.0125629,93.03269L45.000130856,97.6751L45.113197,97.9037C46.29816,100.4933,48.8148,102.8957,52.13127,105.1818C55.4476,107.4596,59.5847,109.5918,64.1071,111.4456C73.15180000000001,115.1241,83.65809999999999,117.6512,92.0578,117.5432C96.2242,117.48910000000001,99.1219,118.8067,101.10249999999999,121.26740000000001C103.0078,123.6283,103.95,127.3192,104.0296,131.90800000000002L89.3358,143.4924L89.3819,154L158.288,154L158.268,144.2446L143.5831,131.9416C143.8888,120.7856,147.536,112.8596,153.503,107.53059999999999C159.57,102.1065,168.075,99.2717,177.902,98.57339999999999L178.991,98.4902L179.004,86.0374054L90.8181,86ZM93.19239999999999,88.34012L176.638,88.37337L176.617,96.4494C166.91899999999998,97.3098,158.247,100.1403,151.916,105.7891C146.824,110.3446,143.9139,117.2152,142.4734,125.3745L133.4454,125.39529999999999L133.45850000000002,127.7354L142.0301,127.71459999999999C141.8793,128.9656,141.3977,129.93,141.3433,131.26L136.3561,131.2434L136.34300000000002,133.58350000000002L141.89960000000002,133.6043L153.838,143.5923L137.41910000000001,143.6053C133.3783,139.86419999999998,128.7559,137.4204,123.9315,137.1883C119.3715,136.9675,114.7863,138.9839,110.6031,142.9533L93.9751,142.8203L106.5249,132.9481L106.5249,132.3827C106.538,127.15809999999999,105.40690000000001,122.852,102.9531,119.8094C100.7422,117.06190000000001,97.3295,115.657,93.23429999999999,115.43260000000001L93.1882,90.54773L93.23429999999999,90.54773L93.19239999999999,88.34012ZM85.09819999999999,90.53475L90.82650000000001,90.53475L90.8726,114.9416C83.1302,114.8293,73.4238,112.7012,65.0155,109.2722C60.623,107.4766,56.6031,105.4025,53.47942,103.2536C50.41002,101.1546,48.28284,98.9516,47.37006,97.05160000000001L47.37006,94.20489L82.7449,94.1919L82.7449,106.1625L85.1024,106.1625L85.1024,94.19242L85.1233,94.19242L85.1024,91.78164L85.09819999999999,90.53475ZM123.8145,139.5193C128.00209999999998,139.723,132.20600000000002,141.9343,135.9872,145.4922L135.97410000000002,151.6562L111.7173,151.6562L111.6838,145.00549999999998C115.624,141.0319,119.7402,139.3194,123.8148,139.5189L123.8145,139.5193ZM91.6808,145.1385L109.3222,145.2673L109.3557,151.6559L91.71430000000001,151.6559L91.6808,145.1385ZM155.886,145.9283L155.899,151.66L138.3237,151.66L138.3237,145.9364L155.886,145.9283Z" fill="#FFFFFF" fill-opacity="1"/></g></g></g></svg>