<svg xmlns="http://www.w3.org/2000/svg" xmlns:xlink="http://www.w3.org/1999/xlink" fill="none" version="1.1" width="240" height="240.00001525878906" viewBox="0 0 240 240.00001525878906"><defs><clipPath id="master_svg0_1_559"><rect x="0" y="0" width="240" height="240.00001525878906" rx="0"/></clipPath><clipPath id="master_svg1_1_446"><rect x="60" y="60" width="121" height="121" rx="0"/></clipPath><clipPath id="master_svg2_1_450"><rect x="106" y="121" width="30" height="30" rx="0"/></clipPath></defs><g clip-path="url(#master_svg0_1_559)"><rect x="0" y="0" width="240" height="240.00001525878906" rx="0" fill="#2FFF75" fill-opacity="1"/><g clip-path="url(#master_svg1_1_446)"><g><path d="M127.62894814453125,85.2083L160.83334814453124,85.2083C163.61774814453125,85.2083,165.87494814453123,87.4656,165.87494814453123,90.25L165.87494814453123,95.29169999999999L75.12500814453125,95.29169999999999L75.12500814453125,80.16667C75.12500814453125,77.38222999999999,77.38223814453124,75.125,80.16667814453125,75.125L117.54554814453125,75.125L127.62894814453125,85.2083ZM75.56362814453125,105.375L165.43634814453125,105.375C168.38674814453125,105.3737,170.70734814453124,107.8949,170.46294814453125,110.8351L166.25814814453125,161.2518C166.04064814453125,163.8639,163.85784814453126,165.8736,161.23664814453124,165.875L79.76333814453125,165.875C77.14220814453125,165.8736,74.95939814453125,163.8639,74.74183814453124,161.2518L70.53709244453125,110.8351C70.29220914453126,107.8949,72.61324814453125,105.3737,75.56362814453125,105.375Z" fill="#FFFFFF" fill-opacity="1"/></g><g clip-path="url(#master_svg2_1_450)"><g><path d="M111,123.5L131,123.5C132.3807,123.5,133.5,124.61929,133.5,126L133.5,146C133.5,147.3807,132.3807,148.5,131,148.5L111,148.5C109.61929,148.5,108.5,147.3807,108.5,146L108.5,126C108.499999713898,124.61929,109.61929,123.5,111,123.5ZM113.5,128.5L113.5,133.5L118.5,133.5L118.5,136L116,136L116,143.5L118.5,143.5L118.5,141L123.5,141L123.5,143.5L126,143.5L126,136L123.5,136L123.5,133.5L128.5,133.5L128.5,128.5L123.5,128.5L123.5,133.5L118.5,133.5L118.5,128.5L113.5,128.5Z" fill="#2FFF75" fill-opacity="1"/></g></g></g></g></svg>