<svg xmlns="http://www.w3.org/2000/svg" xmlns:xlink="http://www.w3.org/1999/xlink" fill="none" version="1.1" width="240" height="240.00001525878906" viewBox="0 0 240 240.00001525878906"><defs><clipPath id="master_svg0_1_694"><rect x="0" y="0" width="240" height="240.00001525878906" rx="0"/></clipPath><clipPath id="master_svg1_1_454"><rect x="60" y="60" width="121" height="121" rx="0"/></clipPath></defs><g clip-path="url(#master_svg0_1_694)"><rect x="0" y="0" width="240" height="240.00001525878906" rx="0" fill="#FFE32F" fill-opacity="1"/><g clip-path="url(#master_svg1_1_454)"><g><path d="M122.5872740234375,85.2083L165.8750740234375,85.2083C168.6594740234375,85.2083,170.9163740234375,87.4656,170.9163740234375,90.25L170.9163740234375,160.8333C170.9163740234375,163.6178,168.6594740234375,165.875,165.8750740234375,165.875L75.1250440234375,165.875C72.34060402343749,165.875,70.0833740234375,163.6178,70.0833740234375,160.8333L70.0833740234375,80.16667C70.0833740234375,77.38222999999999,72.34060402343749,75.125,75.1250440234375,75.125L112.50397402343751,75.125L122.5872740234375,85.2083ZM125.54167402343751,125.54169999999999L140.6666740234375,125.54169999999999L120.50007402343749,105.375L100.3333740234375,125.54169999999999L115.4583740234375,125.54169999999999L115.4583740234375,145.7083L125.54167402343751,145.7083L125.54167402343751,125.54169999999999Z" fill="#FFFFFF" fill-opacity="1"/></g></g></g></svg>